<svg xmlns="http://www.w3.org/2000/svg" xmlns:xlink="http://www.w3.org/1999/xlink" width="50" zoomAndPan="magnify" viewBox="0 0 37.5 52.499999" height="70" preserveAspectRatio="xMidYMid meet" version="1.0"><defs><clipPath id="66c422073a"><path d="M 11.101562 18.601562 L 25.90625 18.601562 L 25.90625 33.40625 L 11.101562 33.40625 Z M 11.101562 18.601562 " clip-rule="nonzero"/></clipPath></defs><g clip-path="url(#66c422073a)"><path fill="#160d53" d="M 18.503906 33.40625 C 18.015625 33.40625 17.535156 33.355469 17.058594 33.261719 C 16.582031 33.167969 16.121094 33.027344 15.671875 32.839844 C 15.222656 32.65625 14.796875 32.425781 14.390625 32.15625 C 13.988281 31.886719 13.613281 31.582031 13.269531 31.238281 C 12.925781 30.894531 12.621094 30.519531 12.347656 30.117188 C 12.078125 29.710938 11.851562 29.285156 11.664062 28.835938 C 11.480469 28.386719 11.339844 27.925781 11.246094 27.445312 C 11.148438 26.96875 11.101562 26.488281 11.101562 26.003906 C 11.101562 25.515625 11.148438 25.035156 11.246094 24.558594 C 11.339844 24.082031 11.480469 23.621094 11.664062 23.171875 C 11.851562 22.722656 12.078125 22.296875 12.347656 21.890625 C 12.621094 21.488281 12.925781 21.113281 13.269531 20.769531 C 13.613281 20.425781 13.988281 20.121094 14.390625 19.847656 C 14.796875 19.578125 15.222656 19.351562 15.671875 19.164062 C 16.121094 18.980469 16.582031 18.839844 17.058594 18.746094 C 17.535156 18.648438 18.015625 18.601562 18.503906 18.601562 C 18.988281 18.601562 19.46875 18.648438 19.945312 18.746094 C 20.425781 18.839844 20.886719 18.980469 21.335938 19.164062 C 21.785156 19.351562 22.210938 19.578125 22.617188 19.847656 C 23.019531 20.121094 23.394531 20.425781 23.738281 20.769531 C 24.082031 21.113281 24.386719 21.488281 24.65625 21.890625 C 24.925781 22.296875 25.15625 22.722656 25.339844 23.171875 C 25.527344 23.621094 25.667969 24.082031 25.761719 24.558594 C 25.855469 25.035156 25.90625 25.515625 25.90625 26.003906 C 25.902344 26.488281 25.855469 26.96875 25.761719 27.445312 C 25.664062 27.921875 25.523438 28.386719 25.339844 28.835938 C 25.152344 29.28125 24.925781 29.710938 24.65625 30.113281 C 24.382812 30.515625 24.078125 30.890625 23.734375 31.234375 C 23.390625 31.578125 23.015625 31.882812 22.613281 32.15625 C 22.210938 32.425781 21.78125 32.652344 21.335938 32.839844 C 20.886719 33.023438 20.421875 33.164062 19.945312 33.261719 C 19.46875 33.355469 18.988281 33.402344 18.503906 33.40625 Z M 18.503906 19.246094 C 18.058594 19.246094 17.621094 19.289062 17.183594 19.375 C 16.75 19.460938 16.328125 19.589844 15.917969 19.761719 C 15.507812 19.929688 15.117188 20.136719 14.75 20.382812 C 14.378906 20.632812 14.039062 20.910156 13.726562 21.226562 C 13.410156 21.539062 13.132812 21.878906 12.882812 22.25 C 12.636719 22.617188 12.429688 23.007812 12.261719 23.417969 C 12.089844 23.828125 11.960938 24.25 11.875 24.683594 C 11.789062 25.121094 11.746094 25.558594 11.746094 26.003906 C 11.746094 26.445312 11.789062 26.886719 11.875 27.320312 C 11.960938 27.757812 12.089844 28.179688 12.261719 28.589844 C 12.429688 29 12.636719 29.390625 12.882812 29.757812 C 13.132812 30.125 13.410156 30.46875 13.726562 30.78125 C 14.039062 31.09375 14.378906 31.375 14.75 31.621094 C 15.117188 31.867188 15.507812 32.078125 15.917969 32.246094 C 16.328125 32.417969 16.75 32.542969 17.183594 32.632812 C 17.621094 32.71875 18.058594 32.761719 18.503906 32.761719 C 18.945312 32.761719 19.386719 32.71875 19.820312 32.632812 C 20.257812 32.542969 20.679688 32.417969 21.089844 32.246094 C 21.5 32.078125 21.890625 31.867188 22.257812 31.621094 C 22.625 31.375 22.96875 31.09375 23.28125 30.78125 C 23.59375 30.46875 23.875 30.125 24.121094 29.757812 C 24.367188 29.390625 24.578125 29 24.746094 28.589844 C 24.917969 28.179688 25.042969 27.757812 25.132812 27.320312 C 25.21875 26.886719 25.261719 26.445312 25.261719 26.003906 C 25.261719 25.558594 25.214844 25.121094 25.128906 24.683594 C 25.042969 24.25 24.914062 23.828125 24.746094 23.417969 C 24.574219 23.007812 24.367188 22.621094 24.121094 22.25 C 23.875 21.882812 23.59375 21.539062 23.28125 21.226562 C 22.964844 20.914062 22.625 20.632812 22.253906 20.386719 C 21.886719 20.140625 21.496094 19.933594 21.089844 19.761719 C 20.679688 19.59375 20.257812 19.464844 19.820312 19.375 C 19.386719 19.289062 18.945312 19.246094 18.503906 19.246094 Z M 18.503906 19.246094 " fill-opacity="1" fill-rule="nonzero"/></g><path fill="#160d53" d="M 23.332031 24.390625 L 23.332031 23.75 C 23.328125 23.539062 23.289062 23.332031 23.207031 23.136719 C 23.125 22.9375 23.007812 22.765625 22.859375 22.613281 C 22.707031 22.460938 22.535156 22.347656 22.335938 22.265625 C 22.140625 22.183594 21.933594 22.140625 21.722656 22.140625 L 15.285156 22.140625 C 15.070312 22.140625 14.867188 22.183594 14.667969 22.265625 C 14.472656 22.347656 14.300781 22.460938 14.148438 22.613281 C 13.996094 22.765625 13.882812 22.9375 13.800781 23.136719 C 13.71875 23.332031 13.675781 23.539062 13.675781 23.75 L 13.675781 28.257812 C 13.675781 28.46875 13.71875 28.675781 13.800781 28.871094 C 13.882812 29.066406 13.996094 29.242188 14.148438 29.394531 C 14.300781 29.542969 14.472656 29.660156 14.667969 29.742188 C 14.867188 29.824219 15.070312 29.863281 15.285156 29.863281 L 21.722656 29.863281 C 21.933594 29.863281 22.140625 29.824219 22.335938 29.742188 C 22.535156 29.660156 22.707031 29.542969 22.859375 29.394531 C 23.007812 29.242188 23.125 29.066406 23.207031 28.871094 C 23.289062 28.675781 23.328125 28.46875 23.332031 28.257812 Z M 15.285156 22.785156 L 21.722656 22.785156 C 21.988281 22.785156 22.214844 22.878906 22.402344 23.070312 C 22.59375 23.257812 22.6875 23.484375 22.6875 23.75 L 22.6875 24.183594 L 18.503906 25.976562 L 14.320312 24.183594 L 14.320312 23.75 C 14.320312 23.484375 14.414062 23.257812 14.601562 23.070312 C 14.792969 22.878906 15.019531 22.785156 15.285156 22.785156 Z M 21.722656 29.222656 L 15.285156 29.222656 C 15.019531 29.222656 14.792969 29.125 14.601562 28.9375 C 14.414062 28.75 14.320312 28.523438 14.320312 28.257812 L 14.320312 24.882812 L 18.375 26.621094 C 18.460938 26.65625 18.546875 26.65625 18.628906 26.621094 L 22.6875 24.882812 L 22.6875 28.257812 C 22.6875 28.523438 22.59375 28.75 22.402344 28.9375 C 22.214844 29.125 21.988281 29.222656 21.722656 29.222656 Z M 21.722656 29.222656 " fill-opacity="1" fill-rule="nonzero"/></svg>