<svg xmlns="http://www.w3.org/2000/svg" xmlns:xlink="http://www.w3.org/1999/xlink" width="50" zoomAndPan="magnify" viewBox="0 0 37.5 52.499999" height="70" preserveAspectRatio="xMidYMid meet" version="1.0"><defs><clipPath id="e62ef260c9"><path d="M 11.101562 18.601562 L 25.90625 18.601562 L 25.90625 33.40625 L 11.101562 33.40625 Z M 11.101562 18.601562 " clip-rule="nonzero"/></clipPath></defs><g clip-path="url(#e62ef260c9)"><path fill="#160d53" d="M 25.902344 26.003906 C 25.902344 26.515625 25.851562 27.011719 25.753906 27.496094 C 25.691406 27.796875 25.609375 28.089844 25.515625 28.378906 C 24.523438 31.300781 21.757812 33.402344 18.5 33.402344 C 17.679688 33.402344 16.996094 33.28125 16.300781 33.070312 C 16.789062 32.347656 17.097656 31.597656 17.300781 30.804688 L 17.679688 29.265625 C 18.140625 29.851562 18.808594 30.175781 19.566406 30.175781 C 21.480469 30.175781 23.257812 28.289062 23.257812 25.769531 C 23.257812 23.253906 21.433594 21.246094 18.53125 21.246094 C 15.625 21.246094 13.792969 23.207031 13.792969 25.667969 C 13.792969 27.09375 14.496094 28.140625 15.238281 28.140625 C 15.476562 28.140625 15.636719 28.09375 15.78125 27.84375 C 15.328125 27.363281 15.097656 26.660156 15.097656 25.902344 C 15.097656 24.023438 16.410156 22.671875 18.484375 22.671875 C 20.34375 22.671875 21.601562 23.902344 21.601562 25.828125 C 21.601562 27.554688 20.683594 28.886719 19.398438 28.886719 C 18.675781 28.886719 18.113281 28.472656 18.113281 27.730469 C 18.113281 27.566406 18.140625 27.371094 18.207031 27.167969 L 18.53125 26.105469 C 18.621094 25.808594 18.667969 25.550781 18.667969 25.316406 C 18.667969 24.585938 18.269531 24.207031 17.726562 24.207031 C 16.9375 24.207031 16.4375 24.949219 16.4375 25.984375 C 16.4375 26.425781 16.53125 26.871094 16.652344 27.261719 L 15.914062 30.453125 C 15.726562 31.230469 15.664062 32.03125 15.753906 32.875 C 14.167969 32.238281 12.859375 31.078125 12.039062 29.609375 C 12.015625 29.570312 11.996094 29.53125 11.972656 29.492188 C 11.886719 29.332031 11.808594 29.167969 11.734375 29 C 11.714844 28.957031 11.699219 28.917969 11.679688 28.875 C 11.644531 28.789062 11.609375 28.707031 11.578125 28.621094 C 11.5625 28.574219 11.546875 28.535156 11.53125 28.488281 C 11.515625 28.445312 11.5 28.402344 11.484375 28.359375 C 11.472656 28.316406 11.457031 28.273438 11.441406 28.230469 C 11.429688 28.183594 11.414062 28.140625 11.402344 28.097656 C 11.390625 28.054688 11.378906 28.015625 11.367188 27.976562 C 11.363281 27.964844 11.363281 27.953125 11.359375 27.941406 C 11.347656 27.902344 11.339844 27.867188 11.328125 27.828125 C 11.316406 27.785156 11.304688 27.738281 11.296875 27.691406 C 11.289062 27.664062 11.285156 27.636719 11.277344 27.609375 C 11.269531 27.582031 11.265625 27.550781 11.257812 27.523438 C 11.253906 27.503906 11.25 27.484375 11.246094 27.460938 C 11.238281 27.433594 11.234375 27.40625 11.230469 27.375 C 11.222656 27.34375 11.21875 27.3125 11.210938 27.28125 C 11.203125 27.234375 11.195312 27.1875 11.1875 27.140625 C 11.183594 27.09375 11.175781 27.050781 11.167969 27.003906 C 11.164062 26.957031 11.15625 26.914062 11.152344 26.871094 C 11.148438 26.828125 11.144531 26.785156 11.140625 26.742188 C 11.132812 26.710938 11.132812 26.675781 11.128906 26.644531 C 11.125 26.59375 11.121094 26.539062 11.117188 26.488281 C 11.117188 26.464844 11.113281 26.4375 11.113281 26.414062 C 11.113281 26.390625 11.109375 26.363281 11.109375 26.335938 C 11.109375 26.3125 11.105469 26.285156 11.105469 26.257812 C 11.105469 26.226562 11.105469 26.191406 11.101562 26.15625 C 11.101562 26.105469 11.101562 26.054688 11.101562 26.003906 C 11.101562 25.746094 11.113281 25.496094 11.140625 25.246094 C 11.519531 21.515625 14.671875 18.605469 18.5 18.605469 C 22.332031 18.605469 25.484375 21.515625 25.863281 25.246094 C 25.890625 25.496094 25.902344 25.746094 25.902344 26.003906 Z M 25.902344 26.003906 " fill-opacity="1" fill-rule="nonzero"/><path fill="#160d53" d="M 25.902344 26.003906 C 25.902344 26.515625 25.851562 27.011719 25.753906 27.496094 C 25.691406 27.796875 25.609375 28.089844 25.515625 28.378906 C 24.523438 31.300781 21.757812 33.402344 18.5 33.402344 C 17.679688 33.402344 16.996094 33.28125 16.300781 33.070312 C 16.789062 32.347656 17.097656 31.597656 17.300781 30.804688 L 17.679688 29.265625 C 18.140625 29.851562 18.808594 30.175781 19.566406 30.175781 C 21.480469 30.175781 23.257812 28.289062 23.257812 25.769531 C 23.257812 23.253906 21.433594 21.246094 18.53125 21.246094 C 15.625 21.246094 13.792969 23.207031 13.792969 25.667969 C 13.792969 27.09375 14.496094 28.140625 15.238281 28.140625 C 15.476562 28.140625 15.636719 28.09375 15.78125 27.84375 C 15.328125 27.363281 15.097656 26.660156 15.097656 25.902344 C 15.097656 24.023438 16.410156 22.671875 18.484375 22.671875 C 20.34375 22.671875 21.601562 23.902344 21.601562 25.828125 C 21.601562 27.554688 20.683594 28.886719 19.398438 28.886719 C 18.675781 28.886719 18.113281 28.472656 18.113281 27.730469 C 18.113281 27.566406 18.140625 27.371094 18.207031 27.167969 L 18.53125 26.105469 C 18.621094 25.808594 18.667969 25.550781 18.667969 25.316406 C 18.667969 24.585938 18.269531 24.207031 17.726562 24.207031 C 16.9375 24.207031 16.4375 24.949219 16.4375 25.984375 C 16.4375 26.425781 16.53125 26.871094 16.652344 27.261719 L 15.914062 30.453125 C 15.726562 31.230469 15.664062 32.03125 15.753906 32.875 C 14.167969 32.238281 12.859375 31.078125 12.039062 29.609375 C 12.015625 29.570312 11.996094 29.53125 11.972656 29.492188 C 11.886719 29.332031 11.808594 29.167969 11.734375 29 C 11.714844 28.957031 11.699219 28.917969 11.679688 28.875 C 11.644531 28.789062 11.609375 28.707031 11.578125 28.621094 C 11.5625 28.574219 11.546875 28.535156 11.53125 28.488281 C 11.515625 28.445312 11.5 28.402344 11.484375 28.359375 C 11.472656 28.316406 11.457031 28.273438 11.441406 28.230469 C 11.429688 28.183594 11.414062 28.140625 11.402344 28.097656 C 11.390625 28.054688 11.378906 28.015625 11.367188 27.976562 C 11.363281 27.964844 11.363281 27.953125 11.359375 27.941406 C 11.347656 27.902344 11.339844 27.867188 11.328125 27.828125 C 11.316406 27.785156 11.304688 27.738281 11.296875 27.691406 C 11.289062 27.664062 11.285156 27.636719 11.277344 27.609375 C 11.269531 27.582031 11.265625 27.550781 11.257812 27.523438 C 11.253906 27.503906 11.25 27.484375 11.246094 27.460938 C 11.238281 27.433594 11.234375 27.40625 11.230469 27.375 C 11.222656 27.34375 11.21875 27.3125 11.210938 27.28125 C 11.203125 27.234375 11.195312 27.1875 11.1875 27.140625 C 11.183594 27.09375 11.175781 27.050781 11.167969 27.003906 C 11.164062 26.957031 11.15625 26.914062 11.152344 26.871094 C 11.148438 26.828125 11.144531 26.785156 11.140625 26.742188 C 11.132812 26.710938 11.132812 26.675781 11.128906 26.644531 C 11.125 26.59375 11.121094 26.539062 11.117188 26.488281 C 11.117188 26.464844 11.113281 26.4375 11.113281 26.414062 C 11.113281 26.390625 11.109375 26.363281 11.109375 26.335938 C 11.109375 26.3125 11.105469 26.285156 11.105469 26.257812 C 11.105469 26.226562 11.105469 26.191406 11.101562 26.15625 C 11.101562 26.105469 11.101562 26.054688 11.101562 26.003906 C 11.101562 25.746094 11.113281 25.496094 11.140625 25.246094 C 11.519531 21.511719 14.667969 18.601562 18.5 18.601562 C 22.335938 18.601562 25.484375 21.511719 25.863281 25.246094 C 25.890625 25.496094 25.902344 25.746094 25.902344 26.003906 Z M 25.902344 26.003906 " fill-opacity="1" fill-rule="nonzero"/></g></svg>